<?xml version="1.0" encoding="UTF-8"?>
<svg version="1.1" xmlns="http://www.w3.org/2000/svg" width="1729" height="291">
<path d="M0 0 C5.00334301 4.00267441 9.48535634 8.46488176 14 13 C14.59683594 12.38253906 15.19367188 11.76507813 15.80859375 11.12890625 C32.15569442 -4.82955607 52.56122899 -11.2795615 75.16015625 -11.31689453 C92.26835578 -11.06475404 107.1857044 -4.75107745 119.3125 7.21875 C141.03261164 29.69653996 141.33086406 57.20814126 141.20278788 86.76290441 C141.19010908 90.1927936 141.18909674 93.62268803 141.18673706 97.05259705 C141.18057184 103.5190197 141.16422974 109.98537306 141.14403808 116.45176548 C141.12152272 123.82564925 141.11064673 131.19953669 141.10064721 138.57344639 C141.07985782 153.71567563 141.04324533 168.8578151 141 184 C126.48 184 111.96 184 97 184 C96.98018066 180.39215576 96.96036133 176.78431152 96.93994141 173.06713867 C96.87292861 161.12489908 96.79538805 149.18274941 96.71247292 137.24061108 C96.66247449 130.00263238 96.61603079 122.76466429 96.578125 115.52661133 C96.54505482 109.21366781 96.50514217 102.90080981 96.45720994 96.58796102 C96.43209317 93.24920636 96.41129058 89.91056417 96.39665604 86.57173729 C96.37968734 82.83310189 96.35062654 79.09473609 96.31884766 75.35620117 C96.31668747 74.26430984 96.31452728 73.17241852 96.31230164 72.04743958 C96.19358942 61.06005402 94.80411846 52.39448661 89 43 C88.7009375 42.29746094 88.401875 41.59492188 88.09375 40.87109375 C86.70206202 38.49031325 85.52270243 38.05150209 83 37 C82.20722656 36.58621094 81.41445313 36.17242187 80.59765625 35.74609375 C79.34275391 35.09833984 79.34275391 35.09833984 78.0625 34.4375 C77.22847656 34.00308594 76.39445313 33.56867188 75.53515625 33.12109375 C67.79022682 29.69614036 58.89551037 30.35480363 51 33 C48.57312873 34.19228224 46.25940162 35.48132913 43.9453125 36.87890625 C42 38 42 38 39 39 C37.9144086 40.84757108 37.9144086 40.84757108 37 43 C35.76617388 44.95355802 34.49679521 46.87982673 33.21875 48.8046875 C29.51302493 55.47974356 29.6949494 61.89232368 29.68115234 69.33935547 C29.67110672 70.57893509 29.6610611 71.81851471 29.65071106 73.09565735 C29.62517475 76.48159411 29.6082859 79.8673644 29.59528303 83.25335836 C29.57961693 86.79681218 29.55283786 90.34018186 29.5272522 93.88357544 C29.48052585 100.5875865 29.44375209 107.29161349 29.41057932 113.99570382 C29.37231443 121.63057443 29.32291575 129.26536041 29.27259517 136.9001596 C29.1693667 152.60005132 29.0815465 168.29997841 29 184 C14.48 184 -0.04 184 -15 184 C-15.029729 178.6336731 -15.029729 178.6336731 -15.06005859 173.15893555 C-15.12707376 161.3164821 -15.20461433 149.47411337 -15.28752708 137.6317625 C-15.33752377 130.45431814 -15.38396747 123.27688447 -15.421875 116.09936523 C-15.45494701 109.83915894 -15.49486062 103.57903886 -15.54279006 97.31892806 C-15.56790495 94.0081321 -15.58870833 90.69740257 -15.60334396 87.38654137 C-15.62031462 83.67903802 -15.64937584 79.97180636 -15.68115234 76.2644043 C-15.68331253 75.18186371 -15.68547272 74.09932312 -15.68769836 72.98397827 C-15.82415302 60.45729274 -17.49524623 48.67194727 -26.25 39.125 C-32.80968272 33.05228062 -41.02356416 30.68630045 -49.83203125 30.8515625 C-59.91773988 31.54211552 -68.52595418 35.60657576 -75.49609375 42.96484375 C-78.19298806 46.61440722 -79.60692742 50.71592734 -81 55 C-81.495 56.485 -81.495 56.485 -82 58 C-82.10161574 59.71253568 -82.14626958 61.42870464 -82.15821838 63.14421082 C-82.1680072 64.20851822 -82.17779602 65.27282562 -82.18788147 66.36938477 C-82.19363693 67.53679199 -82.1993924 68.70419922 -82.20532227 69.90698242 C-82.21522186 71.13637039 -82.22512146 72.36575836 -82.23532104 73.63240051 C-82.26151588 77.00401099 -82.28337501 80.3755977 -82.30332303 83.74724746 C-82.32518876 87.27067727 -82.35257458 90.79406403 -82.37937927 94.31745911 C-82.42929821 100.98970388 -82.47424 107.66197256 -82.51740164 114.3342641 C-82.56678084 121.93034811 -82.62169643 129.52638893 -82.67708123 137.12243116 C-82.79088903 152.74824906 -82.89699979 168.37410656 -83 184 C-97.52 184 -112.04 184 -127 184 C-127 120.97 -127 57.94 -127 -7 C-112.48 -7 -97.96 -7 -83 -7 C-82.505 0.425 -82.505 0.425 -82 8 C-80.72125 6.80375 -79.4425 5.6075 -78.125 4.375 C-55.8885667 -15.2903457 -24.57118696 -16.29591674 0 0 Z " fill="#000000" transform="translate(384,89)"/>
<path d="M0 0 C19.8 0 39.6 0 60 0 C70.32613429 27.5363581 70.32613429 27.5363581 73.62109375 36.8359375 C74.00315475 37.90851807 74.38521576 38.98109863 74.77885437 40.08618164 C75.5854404 42.35100063 76.3911884 44.61611826 77.19610596 46.88153076 C79.3723947 53.00593407 81.55576678 59.12781316 83.73828125 65.25 C84.18069153 66.49147797 84.62310181 67.73295593 85.07891846 69.01205444 C89.40313272 81.14186546 93.75913206 93.26012901 98.125 105.375 C98.49188934 106.39325867 98.85877869 107.41151733 99.23678589 108.46063232 C101.08483614 113.58946983 102.93338339 118.71812797 104.78222656 123.84667969 C108.15015578 133.18990729 111.51327385 142.53486701 114.87683105 151.87966919 C116.36141009 156.00405111 117.84623427 160.12834475 119.33105469 164.25263977 C122.4657761 172.95979383 125.60008668 181.66709559 128.73382568 190.37460327 C130.38365741 194.95883401 132.0336206 199.54301743 133.68359375 204.12719727 C134.46783909 206.3062101 135.25202048 208.48524594 136.03613281 210.66430664 C137.12548746 213.69162791 138.21506543 216.71886873 139.3046875 219.74609375 C139.62057831 220.62414169 139.93646912 221.50218964 140.26193237 222.40684509 C140.56463043 223.24768143 140.86732849 224.08851776 141.17919922 224.95483398 C141.47227966 225.77063934 141.76536011 226.5864447 142.06732178 227.42697144 C142.74316842 229.29146519 143.42815327 231.15265476 144.11871338 233.01174927 C144.48575378 234.00310883 144.85279419 234.99446838 145.23095703 236.01586914 C145.56886261 236.92107803 145.90676819 237.82628693 146.25491333 238.75892639 C147 241 147 241 147 243 C131.16 243 115.32 243 99 243 C96.02468889 235.85925334 93.14056012 228.88260292 90.66796875 221.5859375 C90.3864949 220.76421051 90.10502106 219.94248352 89.8150177 219.09585571 C89.2309396 217.38764535 88.64880324 215.67876984 88.06860352 213.96923828 C87.17680034 211.34349693 86.27728664 208.72048339 85.37695312 206.09765625 C84.80683949 204.42723759 84.23716145 202.75667019 83.66796875 201.0859375 C83.39929489 200.30270111 83.13062103 199.51946472 82.85380554 198.7124939 C81 193.23072327 81 193.23072327 81 191 C30.51 191.495 30.51 191.495 -21 192 C-30.15881891 217.4454113 -30.15881891 217.4454113 -39 243 C-54.84 243 -70.68 243 -87 243 C-86.32137908 238.9282745 -85.75622193 235.92686266 -84.38378906 232.19042969 C-84.05038513 231.27461121 -83.7169812 230.35879272 -83.37347412 229.41522217 C-82.82508881 227.93351532 -82.82508881 227.93351532 -82.265625 226.421875 C-81.88053772 225.36816711 -81.49545044 224.31445923 -81.09869385 223.2288208 C-79.82047923 219.73414587 -78.53512424 216.24213925 -77.25 212.75 C-76.11388405 209.64748986 -74.97901258 206.54452759 -73.84442139 203.44145966 C-72.66281644 200.21005833 -71.48071723 196.97884085 -70.29711914 193.74816895 C-65.76557129 181.37719469 -61.27978539 168.98980377 -56.80123901 156.59954834 C-49.45102797 136.26705008 -42.07824061 115.94279835 -34.6875 95.625 C-34.27398285 94.48818787 -33.8604657 93.35137573 -33.43441772 92.18011475 C-30.2409424 83.40137213 -27.04641307 74.62301319 -23.85168457 65.84472656 C-21.67271867 59.85744617 -19.49405199 53.8700571 -17.31582642 47.88250732 C-16.36479009 45.26871226 -15.41325564 42.65509899 -14.46166992 40.04150391 C-9.6096954 26.7053727 -4.80697545 13.35270957 0 0 Z M29 46 C28.57404541 47.23298828 28.14809082 48.46597656 27.70922852 49.73632812 C25.66258091 55.65833554 23.61304674 61.57934167 21.5625 67.5 C21.18672821 68.58512878 20.81095642 69.67025757 20.42379761 70.78826904 C13.82803008 89.82477849 7.13096621 108.82408868 0.35961914 127.79882812 C0.01415039 128.76940155 -0.33131836 129.73997498 -0.68725586 130.73995972 C-1.32822401 132.54068993 -1.97090743 134.34081101 -2.61572266 136.14016724 C-2.90165283 136.9442099 -3.18758301 137.74825256 -3.48217773 138.57666016 C-3.7284642 139.26603668 -3.97475067 139.95541321 -4.22850037 140.66567993 C-5.24702516 143.74742198 -6.1083394 146.8791879 -7 150 C17.09 150 41.18 150 66 150 C64.16734944 143.28028128 62.34324437 136.77382726 60.0234375 130.2421875 C59.74063431 129.43539551 59.45783112 128.62860352 59.16645813 127.79736328 C58.23957339 125.15529413 57.30744548 122.51511124 56.375 119.875 C55.0335899 116.06304984 53.69442497 112.25031268 52.35546875 108.4375 C52.00658096 107.4451535 51.65769318 106.45280701 51.29823303 105.4303894 C48.59738142 97.73631311 45.94273603 90.02697251 43.30078125 82.3125 C42.14148054 78.93626176 40.98169694 75.5601897 39.82183838 72.18414307 C39.06573636 69.97840817 38.31211318 67.771822 37.56097412 65.56439209 C36.50946328 62.47552431 35.44905143 59.38984696 34.38671875 56.3046875 C34.07277664 55.37446777 33.75883453 54.44424805 33.43537903 53.48583984 C33.14305893 52.64214844 32.85073883 51.79845703 32.54956055 50.92919922 C32.29724167 50.1906369 32.04492279 49.45207458 31.78495789 48.69113159 C31.12102792 46.80092778 31.12102792 46.80092778 29 46 Z " fill="#000000" transform="translate(93,30)"/>
<path d="M0 0 C1.0828125 0.33902344 2.165625 0.67804688 3.28125 1.02734375 C15.40711904 5.16250054 27.57653679 12.23586546 36 22 C36.825 22.804375 37.65 23.60875 38.5 24.4375 C39.325 25.283125 40.15 26.12875 41 27 C41.51046875 27.50273438 42.0209375 28.00546875 42.546875 28.5234375 C58.91700013 45.71957812 67.00476129 71.78844449 66.99951172 95.17529297 C66.79964407 101.54885006 66.04779086 107.71325485 65 114 C15.5 114 -34 114 -85 114 C-78.1574165 129.96602816 -70.21277602 142.86916585 -54 150 C-39.78726023 155.59568822 -25.71675944 157.46106217 -11 152 C-8.01174017 150.5456378 -5.13884592 148.99385618 -2.27734375 147.3046875 C0 146 0 146 3 145 C3 144.34 3 143.68 3 143 C4.19111208 141.84291969 5.38705952 140.69042467 6.6061554 139.56286621 C8.19201043 137.78470583 8.97237861 136.01724804 9.98901367 133.86914062 C11.58770166 131.28010872 12.35882901 130.19628048 15.29922485 129.29614258 C18.22617265 129.07252127 21.05507646 129.10049131 23.98828125 129.21875 C25.57578438 129.23572937 25.57578438 129.23572937 27.19535828 129.25305176 C30.56959474 129.29777147 33.93955242 129.39813165 37.3125 129.5 C39.60215209 129.54013243 41.89187092 129.5766336 44.18164062 129.609375 C49.78921573 129.69749104 55.39430227 129.83128246 61 130 C60.70429871 131.41922427 60.40307897 132.83729931 60.09960938 134.25488281 C59.93247437 135.04469543 59.76533936 135.83450806 59.59313965 136.64825439 C58.68357807 140.25458461 57.19016746 143.45064618 55.5 146.75 C55.15251709 147.43320313 54.80503418 148.11640625 54.44702148 148.8203125 C43.92501667 168.79240013 26.0730764 183.15440516 5 191 C-24.2204891 199.94978621 -53.53332713 197.61271686 -80.6875 183.6875 C-86.67131247 180.37038657 -91.81389988 176.43573032 -97 172 C-98.010625 171.236875 -99.02125 170.47375 -100.0625 169.6875 C-119.10726413 152.26356686 -130.05821988 126.42235103 -131.22265625 100.8515625 C-131.95668355 75.11224093 -124.99783881 50.84862939 -108 31 C-107.33355469 30.18917969 -106.66710938 29.37835938 -105.98046875 28.54296875 C-94.94208888 15.5952475 -80.2544702 6.34132231 -64.3125 0.625 C-63.64839111 0.38628174 -62.98428223 0.14756348 -62.30004883 -0.09838867 C-42.99549748 -6.61653307 -19.20973514 -6.79970765 0 0 Z M-73 55 C-78.29332635 60.87618701 -85 69.92600279 -85 78 C-50.02 78 -15.04 78 21 78 C18.85291725 65.11750349 10.68190521 53.67798667 0.37744141 45.75195312 C-23.16486371 29.2083397 -53.67796856 34.79809463 -73 55 Z " fill="#000000" transform="translate(1234,82)"/>
<path d="M0 0 C0.85758911 -0.00315216 1.71517822 -0.00630432 2.59875488 -0.009552 C3.53102905 -0.00752777 4.46330322 -0.00550354 5.42382812 -0.00341797 C6.84979309 -0.00485306 6.84979309 -0.00485306 8.30456543 -0.00631714 C10.31876695 -0.00699904 12.33297065 -0.00514409 14.34716797 -0.00097656 C17.44178167 0.00437155 20.53625022 -0.00092124 23.63085938 -0.00732422 C25.58268261 -0.00666344 27.53450576 -0.00538228 29.48632812 -0.00341797 C30.88473938 -0.00645432 30.88473938 -0.00645432 32.31140137 -0.009552 C33.16899048 -0.00639984 34.02657959 -0.00324768 34.91015625 0 C35.66880981 0.00079559 36.42746338 0.00159119 37.20910645 0.00241089 C38.95507812 0.12939453 38.95507812 0.12939453 39.95507812 1.12939453 C40.08012897 3.71489225 40.14112612 6.27500864 40.16040039 8.86206055 C40.17029999 9.67175293 40.18019958 10.48144531 40.19039917 11.31567383 C40.222108 14.00485258 40.24680848 16.69404903 40.27148438 19.38330078 C40.29204582 21.24275687 40.31304206 23.10220821 40.3344574 24.96165466 C40.38976178 29.86563268 40.43913402 34.76965346 40.48730469 39.67370605 C40.53745879 44.67394841 40.59317657 49.67412835 40.6484375 54.67431641 C40.75612134 64.49262252 40.85754344 74.31098272 40.95507812 84.12939453 C41.49247116 83.57962952 42.0298642 83.0298645 42.58354187 82.46343994 C43.65050041 81.38204742 43.65050041 81.38204742 44.73901367 80.27880859 C45.44140671 79.56404358 46.14379974 78.84927856 46.86747742 78.112854 C54.12888398 71.21368714 64.45975092 66.90068819 73.95507812 64.12939453 C75.04369141 63.79294922 75.04369141 63.79294922 76.15429688 63.44970703 C95.11750644 58.61789447 117.25983913 62.29354897 134.01367188 71.87939453 C152.72839252 83.70423713 163.55418844 100.65155051 168.70507812 121.94189453 C170.66346645 130.74325601 171.09789481 139.16133109 171.06860352 148.14501953 C171.06874954 149.32636978 171.06889557 150.50772003 171.06904602 151.72486877 C171.0683522 155.6097297 171.06058469 159.49454203 171.05273438 163.37939453 C171.05031081 166.08081027 171.04939607 168.78222597 171.04844666 171.48364258 C171.0453472 177.85471697 171.0371526 184.22577406 171.02709717 190.59684086 C171.01589285 197.85444332 171.01041472 205.11204664 171.00540173 212.36965561 C170.99496874 227.28957979 170.97664061 242.20948151 170.95507812 257.12939453 C156.43507813 257.12939453 141.91507813 257.12939453 126.95507812 257.12939453 C126.93525879 253.77436768 126.91543945 250.41934082 126.89501953 246.96264648 C126.82793076 235.84264566 126.75029436 224.72273617 126.66755104 213.60284138 C126.61760787 206.86488892 126.57116431 200.12694752 126.53320312 193.38891602 C126.49616487 186.87898736 126.44975569 180.36918516 126.39701462 173.85936546 C126.3785688 171.38327453 126.36342518 168.90715659 126.35173416 166.43102455 C126.8140895 142.17215156 126.8140895 142.17215156 117.95507812 120.12939453 C117.57480469 119.53384766 117.19453125 118.93830078 116.80273438 118.32470703 C113.28916599 113.49823943 108.15360331 110.7995461 102.95507812 108.12939453 C102.28992187 107.78521484 101.62476563 107.44103516 100.93945312 107.08642578 C91.20535113 103.00500113 77.25845967 103.85727237 67.40820312 107.09033203 C54.51523772 112.55136515 47.34897831 120.29625617 41.95507812 133.12939453 C41.02630417 136.19574739 40.82028129 138.96736291 40.79685974 142.16607666 C40.78707092 143.1812738 40.7772821 144.19647095 40.76719666 145.24243164 C40.76144119 146.35013916 40.75568573 147.45784668 40.74975586 148.59912109 C40.73985626 149.77013367 40.72995667 150.94114624 40.71975708 152.14764404 C40.68814681 156.02174857 40.66338637 159.89586537 40.63867188 163.77001953 C40.61863859 166.45473999 40.59715302 169.13944829 40.57569885 171.82415771 C40.52581592 178.17054128 40.48086081 184.5169498 40.43767649 190.8633821 C40.38826647 198.08948545 40.33336232 205.31554378 40.2779969 212.54160357 C40.1642444 227.40415967 40.05811601 242.26675981 39.95507812 257.12939453 C25.10507813 257.12939453 10.25507812 257.12939453 -5.04492188 257.12939453 C-5.06750643 224.53353025 -5.08541968 191.93766896 -5.0959872 159.34179867 C-5.09723798 155.49764116 -5.0985323 151.65348366 -5.09985352 147.80932617 C-5.10011583 147.0439911 -5.10037814 146.27865603 -5.1006484 145.49012899 C-5.10500525 133.08153783 -5.11289288 120.67295129 -5.12207467 108.26436288 C-5.13141078 95.54154872 -5.13697739 82.81873699 -5.13901037 70.09591955 C-5.14038569 62.23890007 -5.14473674 54.38189361 -5.15283834 46.52487814 C-5.15872595 40.51033997 -5.15938095 34.49581313 -5.15802956 28.48127174 C-5.15830609 26.0064155 -5.16031385 23.53155879 -5.16412735 21.05670547 C-5.1690576 17.69391803 -5.16792264 14.33118764 -5.16517639 10.96839905 C-5.16808923 9.97522913 -5.17100207 8.9820592 -5.17400318 7.95879322 C-5.17101661 6.61818275 -5.17101661 6.61818275 -5.1679697 5.25048923 C-5.16853928 4.08455796 -5.16853928 4.08455796 -5.16912037 2.89507252 C-4.92673574 -0.55080819 -2.97205354 0.00311677 0 0 Z " fill="#000000" transform="translate(1476.044921875,15.87060546875)"/>
<path d="M0 0 C20.68366506 17.87321286 31.97918993 43.39689102 34.00292969 70.35888672 C35.42063415 98.57823545 26.03489995 124.88589409 7.5078125 146.13671875 C-7.24050227 162.04365727 -26.92637682 171.31232523 -47.87890625 175.7109375 C-48.66096436 175.8860083 -49.44302246 176.0610791 -50.2487793 176.24145508 C-74.1525733 180.50832558 -100.51921321 174.61576374 -120.87890625 161.7109375 C-144.67642511 145.06709703 -160.55534492 122.34309336 -165.6640625 93.5546875 C-169.5875851 67.99462272 -164.43793758 41.22900268 -149.87890625 19.7109375 C-147.31670078 16.28344688 -144.63172387 12.98593908 -141.87890625 9.7109375 C-141.24210938 8.88078125 -140.6053125 8.050625 -139.94921875 7.1953125 C-105.15926478 -34.55263226 -39.47055488 -31.38364336 0 0 Z M-99.87890625 29.7109375 C-100.60722656 30.2575 -101.33554687 30.8040625 -102.0859375 31.3671875 C-112.891854 40.12762458 -119.68340185 53.07519382 -121.87890625 66.7109375 C-123.40040196 84.56085674 -120.79122786 100.39529321 -109.4453125 114.80078125 C-100.30766553 125.16234441 -88.91506657 132.81242949 -74.87890625 134.7109375 C-57.48800502 135.75507625 -43.07428275 132.79397881 -29.1875 121.52734375 C-16.72571623 109.94073869 -10.87082452 95.53148529 -9.95288086 78.69067383 C-9.36964096 61.56130403 -15.53695637 47.21191875 -26.87890625 34.7109375 C-37.90201468 24.13217143 -50.94040227 18.75102635 -66.19140625 18.2734375 C-78.94388257 18.58670202 -89.72566595 21.99382088 -99.87890625 29.7109375 Z " fill="#000000" transform="translate(930.87890625,101.2890625)"/>
<path d="M0 0 C57.42 0 114.84 0 174 0 C174 14.19 174 28.38 174 43 C152.88 43 131.76 43 110 43 C110 109 110 175 110 243 C94.49 243 78.98 243 63 243 C63 177 63 111 63 43 C42.21 43 21.42 43 0 43 C0 28.81 0 14.62 0 0 Z " fill="#000000" transform="translate(947,30)"/>
<path d="M0 0 C1.24716797 -0.020625 2.49433594 -0.04125 3.77929688 -0.0625 C12.52116955 -0.09886765 21.95497423 0.25873712 29.9375 4.25 C29.9375 19.76 29.9375 35.27 29.9375 51.25 C24.4925 48.775 24.4925 48.775 18.9375 46.25 C3.99216261 41.09030019 -10.90963272 42.20847606 -25.3203125 48.72265625 C-39.2176189 56.23999718 -48.47828879 67.84234163 -53.5 82.75 C-57.66539022 99.05092105 -55.87483028 115.77211611 -47.875 130.5625 C-39.70672967 143.53867628 -27.37778488 152.38693959 -12.3828125 155.796875 C-11.61710937 155.94640625 -10.85140625 156.0959375 -10.0625 156.25 C-8.515625 156.5903125 -8.515625 156.5903125 -6.9375 156.9375 C6.68557731 158.41826927 17.29565148 154.51743688 29.9375 149.25 C29.9375 164.76 29.9375 180.27 29.9375 196.25 C2.22995238 203.1768869 -25.05856922 202.0922633 -50.3125 187.875 C-55.5505444 184.68542966 -60.37577762 181.19976427 -65.0625 177.25 C-66.28066406 176.25033203 -66.28066406 176.25033203 -67.5234375 175.23046875 C-85.79364496 159.63052238 -96.01433809 137.61020016 -100.0625 114.25 C-101.90942792 81.01089417 -94.6905919 54.859989 -72.72265625 29.5546875 C-53.63736412 9.2944273 -27.32746201 0.11058154 0 0 Z " fill="#000000" transform="translate(1414.0625,77.75)"/>
<path d="M0 0 C1.22460938 -0.01611328 2.44921875 -0.03222656 3.7109375 -0.04882812 C12.35334619 -0.05340567 21.74071245 0.37035623 29.625 4.3125 C29.625 19.8225 29.625 35.3325 29.625 51.3125 C24.18 48.8375 24.18 48.8375 18.625 46.3125 C3.67966261 41.15280019 -11.22213272 42.27097606 -25.6328125 48.78515625 C-39.5301189 56.30249718 -48.79078879 67.90484163 -53.8125 82.8125 C-57.97789022 99.11342105 -56.18733028 115.83461611 -48.1875 130.625 C-40.01922967 143.60117628 -27.69028488 152.44943959 -12.6953125 155.859375 C-11.92960938 156.00890625 -11.16390625 156.1584375 -10.375 156.3125 C-8.828125 156.6528125 -8.828125 156.6528125 -7.25 157 C6.37307731 158.48076927 16.98315148 154.57993688 29.625 149.3125 C29.625 164.8225 29.625 180.3325 29.625 196.3125 C2.00013393 203.21871652 -25.63970971 202.07258134 -50.8125 187.875 C-55.9683668 184.69520091 -60.74535874 181.2141588 -65.375 177.3125 C-66.59316406 176.31283203 -66.59316406 176.31283203 -67.8359375 175.29296875 C-85.65805498 160.07562228 -97.24243354 137.50491261 -100.375 114.3125 C-100.66704437 109.72543765 -100.70915887 105.15789428 -100.6875 100.5625 C-100.68186035 99.31694336 -100.6762207 98.07138672 -100.67041016 96.78808594 C-100.55701118 88.22141089 -100.08218787 80.49489929 -97.375 72.3125 C-97.16568848 71.6745752 -96.95637695 71.03665039 -96.74072266 70.37939453 C-87.97398002 44.16602748 -71.47698696 23.51241563 -46.9453125 10.4921875 C-31.52754348 3.13454713 -17.03948429 -0.04455932 0 0 Z " fill="#000000" transform="translate(723.375,77.6875)"/>
<path d="M0 0 C14.52 0 29.04 0 44 0 C44 63.03 44 126.06 44 191 C29.48 191 14.96 191 0 191 C0 127.97 0 64.94 0 0 Z " fill="#000000" transform="translate(556,82)"/>
<path d="M0 0 C16.17 0 32.34 0 49 0 C49 15.84 49 31.68 49 48 C32.83 48 16.66 48 0 48 C0 32.16 0 16.32 0 0 Z " fill="#000000" transform="translate(1675,225)"/>
<path d="M0 0 C14.85 0 29.7 0 45 0 C45 13.53 45 27.06 45 41 C30.15 41 15.3 41 0 41 C0 27.47 0 13.94 0 0 Z " fill="#000000" transform="translate(555,20)"/>
</svg>
